<?xml version="1.0" encoding="UTF-8"?>
<svg xmlns="http://www.w3.org/2000/svg" width="480" height="140" viewBox="0 0 480 140" fill="none">
  <path d="M215.051 65.8157H178.017V39.0918H168.641V101.847H178.017V74.5952H215.051V101.847H224.427V39.0918H215.051V65.8157Z" fill="black"></path>
  <path d="M256.897 64.5842C263.039 64.5842 267.354 67.7466 269.399 73.7449H244.248C246.02 67.9142 250.621 64.5842 256.943 64.5842M256.947 56.8477C244.227 56.8477 234.624 66.7497 234.624 79.8604C234.368 92.3217 244.269 102.634 256.733 102.886C257.069 102.894 257.404 102.89 257.739 102.886C272.877 102.886 278.172 92.7322 278.843 89.176L278.939 88.6273H270.245L270.116 88.8912C270.007 89.1174 267.145 94.6381 257.743 94.6381C250.005 94.6381 244.256 89.176 243.611 81.3013H279.304V80.8238C279.304 66.7079 270.082 56.877 256.884 56.877" fill="black"></path>
  <path d="M309.378 94.6383C301.103 94.6383 295.317 88.5563 295.317 79.8731C295.317 71.19 301.103 65.0996 309.378 65.0996C317.653 65.0996 323.284 71.169 323.284 79.8731C323.284 88.5772 317.569 94.6383 309.378 94.6383ZM323.104 63.8304C320.937 60.8355 315.989 56.8479 307.903 56.8479C295.112 56.8479 286.188 66.3185 286.188 79.8731C286.188 93.4277 295.112 102.886 307.903 102.886C313.861 103.066 319.534 100.331 323.104 95.5598V101.847H331.965V36.8301H323.104V63.8304Z" fill="black"></path>
  <path d="M364.771 64.5842C370.905 64.5842 375.228 67.7466 377.265 73.7449H352.113C353.886 67.9142 358.486 64.5842 364.821 64.5842M364.821 56.8477C352.088 56.8477 342.485 66.7497 342.485 79.8604C342.23 92.3217 352.13 102.634 364.595 102.886C364.93 102.894 365.265 102.89 365.6 102.886C380.738 102.886 386.034 92.7322 386.704 89.176L386.801 88.6273H378.107L377.985 88.8912C377.864 89.1174 374.99 94.6381 365.6 94.6381C357.862 94.6381 352.126 89.176 351.481 81.3013H387.232V80.8238C387.232 66.7079 378.01 56.877 364.825 56.877" fill="black"></path>
  <path d="M406.083 64.2826V57.8906H397.209V101.834H406.083V77.0832C406.083 69.397 410.097 66.4021 420.454 66.4021H431.905V57.543H420.634C411.856 57.543 407.868 61.4343 406.129 64.2826" fill="black"></path>
  <path d="M471.285 79.8662C471.285 88.4279 465.621 94.6398 457.823 94.6398C450.026 94.6398 444.014 88.5703 444.014 79.8662C444.014 71.1621 449.729 65.1011 457.861 65.1011C465.993 65.1011 471.323 71.3171 471.323 79.8662M471.139 63.857C469.404 61.4611 464.984 56.8535 456.37 56.8535C445.711 56.8535 434.918 64.7576 434.918 79.8662C434.918 93.4208 443.733 102.891 456.37 102.891C462.198 103.122 467.753 100.399 471.139 95.6492V101.886H480V57.8965H471.139V63.8612V63.857Z" fill="black"></path>
  <path d="M89.5518 64.8457H50.2266V74.886H89.5518V64.8457Z" fill="black"></path>
  <path d="M69.8854 0C31.2892 0 0 31.2812 0 69.8675C0 108.454 31.2892 139.735 69.8854 139.735C108.482 139.735 139.771 108.454 139.771 69.8675C139.771 31.2812 108.482 0 69.8854 0ZM98.7571 101.245H89.5522V81.5833H50.227L50.2186 81.5665V101.245H41.0137V38.4899H50.2186V58.1642L50.227 58.1559H89.5522V38.4941H98.7571V101.249V101.245Z" fill="black"></path>
</svg>
